#!OML:ASF H:\Punching\Project 1\Capture day 1\Session 1\female.ASF
:FULLY-SPECIFIED
:DEGREES
766
root 2.75726 15.0989 9.75067 13.6838 3.85785 -3.37501
lowerback -2.95298 0.179318 6.24625
upperback -7.71807 0.349218 0.763367
thorax -6.38714 -0.170374 -2.70183
lowerneck -1.82777 12.4888 19.1867
upperneck 23.4677 19.4115 -14.6687
head 11.2816 9.57444 -6.02464
rclavicle 1.15668e-014 2.74323e-014
rhumerus -64.1023 20.0978 -82.3291
rradius 112.547
rwrist 12.3268
rhand -23.5807 8.84099
rfingers 7.12502
rthumb 2.88234 -21.1193
lclavicle 1.15668e-014 2.74323e-014
lhumerus 1.72743 17.8195 32.4711
lradius 106.566
lwrist -9.48079
lhand -19.7228 11.5301
lfingers 7.12502
lthumb 6.60743 41.407
rfemur 12.8085 -0.439051 14.447
rtibia 9.54166e-015
rfoot -13.8015 -18.2225
rtoes -15.5063
lfemur -43.9083 0.484347 -12.1966
ltibia 45.5641
lfoot -12.2332 6.99174
ltoes -1.11307
767
root 2.7923 15.0996 9.80811 13.8617 4.02015 -3.28916
lowerback -2.91473 0.303719 6.24323
upperback -7.7124 0.51041 0.581822
thorax -6.38659 -0.0958814 -2.89493
lowerneck -2.00476 12.4651 19.2685
upperneck 23.1678 19.3267 -14.7918
head 11.2082 9.52414 -6.08089
rclavicle 6.27414e-015 1.03368e-014
rhumerus -65.662 18.7897 -82.1747
rradius 111.77
rwrist 12.1946
rhand -23.9669 9.25445
rfingers 7.12502
rthumb 2.50931 -20.7105
lclavicle 6.27414e-015 1.03368e-014
lhumerus -0.0569575 20.1319 30.4634
lradius 105.634
lwrist -9.505
lhand -19.8331 11.9721
lfingers 7.12502
lthumb 6.50091 41.8523
rfemur 12.8553 -0.557982 14.2238
rtibia 3.49861e-014
rfoot -13.6446 -18.1192
rtoes -15.4046
lfemur -44.0249 0.403876 -12.4533
ltibia 45.8127
lfoot -12.5071 6.93579
ltoes -1.06755
768
root 2.82543 15.1017 9.86207 14.039 4.16749 -3.20595
lowerback -2.88314 0.427411 6.28312
upperback -7.70632 0.668556 0.361516
thorax -6.3812 -0.0267058 -3.1527
lowerneck -2.12618 12.4325 19.4103
upperneck 22.8298 19.2197 -14.8958
head 11.1104 9.47283 -6.14574
rclavicle -6.89534e-016 -7.95139e-015
rhumerus -67.0953 17.5076 -82.1202
rradius 111.039
rwrist 11.9589
rhand -23.8873 9.62239
rfingers 7.12502
rthumb 2.58615 -20.3417
lclavicle -6.89534e-016 -7.95139e-015
lhumerus -1.72437 22.3994 28.633
lradius 104.718
lwrist -9.35642
lhand -19.8374 12.4115
lfingers 7.12502
lthumb 6.49681 42.2919
rfemur 12.8755 -0.665029 14.0151
rtibia -2.22639e-014
rfoot -13.474 -18.0358
rtoes -15.2658
lfemur -44.1152 0.299351 -12.6845
ltibia 46.0001
lfoot -12.751 6.91124
ltoes -1.03805
769
root 2.85695 15.1049 9.91297 14.2082 4.29891 -3.12243
lowerback -2.8581 0.558373 6.36395
upperback -7.70111 0.834487 0.102277
thorax -6.37068 0.0426842 -3.47465
lowerneck -2.21548 12.3855 19.585
upperneck 22.5 19.0776 -14.9388
head 10.9992 9.4139 -6.20126
rclavicle 1.34204e-015 1.05232e-014
rhumerus -68.4466 16.2754 -82.2063
rradius 110.389
rwrist 11.6909
rhand -23.5111 9.93905
rfingers 7.12502
rthumb 2.94948 -20.0203
lclavicle 1.34204e-015 1.05232e-014
lhumerus -3.19673 24.6105 27.0641
lradius 103.907
lwrist -8.99993
lhand -19.7012 12.7353
lfingers 7.12502
lthumb 6.62827 42.6116
rfemur 12.8855 -0.759045 13.8177
rtibia 3.81667e-014
rfoot -13.2878 -17.9727
rtoes -15.1093
lfemur -44.1755 0.168123 -12.8952
ltibia 46.1371
lfoot -12.9655 6.92024
ltoes -1.02771
